<svg xmlns="http://www.w3.org/2000/svg" viewBox="0 0 600 600" role="img" aria-labelledby="title desc">
  <title id="title">TalkBridge mark</title>
  <desc id="desc">Two opposing chat bubbles connected by translation arrows.</desc>
  <rect width="600" height="600" rx="112" fill="#FFE500"/>
  <path d="M88 120h280c43 0 78 35 78 78v42c0 43-35 78-78 78H225l-86 67 23-67H88c-43 0-78-35-78-78v-42c0-43 35-78 78-78z" fill="#FFFFFF" stroke="#111827" stroke-width="18" stroke-linejoin="round"/>
  <path d="M232 282h280c43 0 78 35 78 78v42c0 43-35 78-78 78h-74l23 67-86-67H232c-43 0-78-35-78-78v-42c0-43 35-78 78-78z" fill="#111827" stroke="#111827" stroke-width="18" stroke-linejoin="round"/>
  <path d="M126 208h190m0 0-38-38m38 38-38 38" fill="none" stroke="#111827" stroke-width="22" stroke-linecap="round" stroke-linejoin="round"/>
  <path d="M474 392H284m0 0 38-38m-38 38 38 38" fill="none" stroke="#FFE500" stroke-width="22" stroke-linecap="round" stroke-linejoin="round"/>
</svg>
